#tb 0: 1/1000
0,          1,          1,        0,   126720, 0xcefaec47
0,         33,         33,        0,   126720, 0xa416ece5
0,         66,         66,        0,   126720, 0xa416ece5
0,        100,        100,        0,   126720, 0xa416ece5
0,        133,        133,        0,   126720, 0x60d6ed27
0,        166,        166,        0,   126720, 0x259af497
0,        200,        200,        0,   126720, 0x5e6ff4d7
0,        233,        233,        0,   126720, 0xcc10f4b7
0,        266,        266,        0,   126720, 0x763ab817
0,        300,        300,        0,   126720, 0xe95fb8d7
0,        333,        333,        0,   126720, 0xe2b1b917
0,        367,        367,        0,   126720, 0x11abb8f7
0,        400,        400,        0,   126720, 0x4b62b947
0,        433,        433,        0,   126720, 0xcaf2bbb7
0,        467,        467,        0,   126720, 0x2953bc37
0,        500,        500,        0,   126720, 0x1dd9bbd7
0,        533,        533,        0,   126720, 0x105eb927
0,        567,        567,        0,   126720, 0x7fa3ae27
0,        600,        600,        0,   126720, 0x722e99f7
0,        633,        633,        0,   126720, 0x5ac9a827
0,        667,        667,        0,   126720, 0x07beba77
0,        700,        700,        0,   126720, 0x29d6a887
0,        734,        734,        0,   126720, 0xa5caab87
0,        767,        767,        0,   126720, 0x9ca7aac7
0,        800,        800,        0,   126720, 0xb7debcd7
0,        834,        834,        0,   126720, 0xd115a757
0,        867,        867,        0,   126720, 0x6ddaef32
0,        900,        900,        0,   126720, 0xde1bb900
0,        934,        934,        0,   126720, 0xac6c071b
0,        967,        967,        0,   126720, 0x4a9f897c
0,       1000,       1000,        0,   126720, 0xd8fa050f
0,       1034,       1034,        0,   126720, 0x5d06be59
0,       1067,       1067,        0,   126720, 0xdc3e0837
0,       1101,       1101,        0,   126720, 0xcac6da2b
0,       1134,       1134,        0,   126720, 0x6672dfc9
0,       1167,       1167,        0,   126720, 0x7491b176
0,       1201,       1201,        0,   126720, 0xa9477df0
0,       1234,       1234,        0,   126720, 0xe976c34f
0,       1267,       1267,        0,   126720, 0xdb7ab0e2
0,       1301,       1301,        0,   126720, 0x1b42db35
0,       1334,       1334,        0,   126720, 0xc6e10f9f
0,       1368,       1368,        0,   126720, 0x169d61b6
0,       1401,       1401,        0,   126720, 0xc7623119
0,       1434,       1434,        0,   126720, 0x5b9b7543
0,       1468,       1468,        0,   126720, 0x68c27aca
0,       1501,       1501,        0,   126720, 0xa0e4e1c9
0,       1534,       1534,        0,   126720, 0xbbdae87e
0,       1568,       1568,        0,   126720, 0xe67e00a1
0,       1601,       1601,        0,   126720, 0x648ea605
0,       1634,       1634,        0,   126720, 0x5becb718
0,       1668,       1668,        0,   126720, 0xb79ab1da
0,       1701,       1701,        0,   126720, 0x0d52d1dc
0,       1735,       1735,        0,   126720, 0x1277b853
0,       1768,       1768,        0,   126720, 0xc57cbc83
0,       1801,       1801,        0,   126720, 0x2126bdc3
0,       1835,       1835,        0,   126720, 0x4c1ef41f
0,       1868,       1868,        0,   126720, 0x185f6a2c
0,       1901,       1901,        0,   126720, 0xb2b5a7d3
0,       1935,       1935,        0,   126720, 0x32d7a26d
0,       1968,       1968,        0,   126720, 0x0bffd118
0,       2001,       2001,        0,   126720, 0x2eed823a
0,       2035,       2035,        0,   126720, 0xc4c0147c
0,       2068,       2068,        0,   126720, 0x1f8bf8ac
0,       2102,       2102,        0,   126720, 0xfcb715e8
0,       2135,       2135,        0,   126720, 0xc3e9fa9c
0,       2168,       2168,        0,   126720, 0x9ad8572c
0,       2202,       2202,        0,   126720, 0x2800596d
0,       2235,       2235,        0,   126720, 0x3caa5094
0,       2268,       2268,        0,   126720, 0x6162e000
0,       2302,       2302,        0,   126720, 0x18200f2c
0,       2335,       2335,        0,   126720, 0x649e699f
0,       2369,       2369,        0,   126720, 0x5f513367
0,       2402,       2402,        0,   126720, 0x71fbf4a8
0,       2435,       2435,        0,   126720, 0x5bff7b97
0,       2469,       2469,        0,   126720, 0xbad453d4
0,       2502,       2502,        0,   126720, 0x56e6161d
0,       2535,       2535,        0,   126720, 0x524f2980
0,       2569,       2569,        0,   126720, 0x0589405a
0,       2602,       2602,        0,   126720, 0x5c264043
0,       2635,       2635,        0,   126720, 0x2394696f
0,       2669,       2669,        0,   126720, 0x1aa0cd15
0,       2702,       2702,        0,   126720, 0xd6ec7840
0,       2736,       2736,        0,   126720, 0xde5531f0
0,       2769,       2769,        0,   126720, 0x03a42c3a
0,       2802,       2802,        0,   126720, 0xbdee0efb
0,       2836,       2836,        0,   126720, 0xa6012736
0,       2869,       2869,        0,   126720, 0x448f5ae6
0,       2902,       2902,        0,   126720, 0x8a2550c3
0,       2936,       2936,        0,   126720, 0x143104e7
0,       2969,       2969,        0,   126720, 0x75db363d
0,       3002,       3002,        0,   126720, 0x906d2f9d
0,       3036,       3036,        0,   126720, 0xfc7b30ab
0,       3069,       3069,        0,   126720, 0xd3edaa62
0,       3103,       3103,        0,   126720, 0x6267f3fc
0,       3136,       3136,        0,   126720, 0x87b6c67f
0,       3169,       3169,        0,   126720, 0x84da3b79
0,       3203,       3203,        0,   126720, 0x72fbae15
0,       3236,       3236,        0,   126720, 0xb8474a80
0,       3269,       3269,        0,   126720, 0xbeae088b
0,       3303,       3303,        0,   126720, 0x538b1a14
0,       3336,       3336,        0,   126720, 0x07bbddcd
0,       3370,       3370,        0,   126720, 0x807ddf8f
0,       3403,       3403,        0,   126720, 0x325bb46d
0,       3436,       3436,        0,   126720, 0xd80c2f2a
0,       3470,       3470,        0,   126720, 0xfc1b0dec
0,       3503,       3503,        0,   126720, 0x46068ebc
0,       3536,       3536,        0,   126720, 0xcd987941
0,       3570,       3570,        0,   126720, 0x52f37f2e
0,       3603,       3603,        0,   126720, 0xc96931a2
